<svg xmlns="http://www.w3.org/2000/svg" viewBox="0 0 36 36" fill="none">
  <defs>
    <linearGradient id="dv-cloud" x1="3" y1="8" x2="33" y2="28" gradientUnits="userSpaceOnUse">
      <stop offset="0" stop-color="#5fb3ff"/>
      <stop offset=".5" stop-color="#1a73e8"/>
      <stop offset="1" stop-color="#0f3a7a"/>
    </linearGradient>
    <linearGradient id="dv-gloss" x1="0" y1="6" x2="0" y2="18" gradientUnits="userSpaceOnUse">
      <stop offset="0" stop-color="#ffffff" stop-opacity=".55"/>
      <stop offset="1" stop-color="#ffffff" stop-opacity="0"/>
    </linearGradient>
    <radialGradient id="dv-gold" cx="18" cy="20" r="9" gradientUnits="userSpaceOnUse">
      <stop offset="0" stop-color="#fef3c7"/>
      <stop offset=".5" stop-color="#fbbf24"/>
      <stop offset="1" stop-color="#b45309"/>
    </radialGradient>
  </defs>
  <ellipse cx="18" cy="32.5" rx="13" ry="1.2" fill="#0f172a" opacity=".2"/>
  <path d="M8.5 27.5 C4.5 27.5 2 24.8 2 21.5 C2 18.8 4 16.5 6.6 16 C7.4 12 10.6 9 14.6 9 C17.7 9 20.4 10.7 21.7 13.3 C22.4 13 23.1 12.9 23.9 12.9 C27 12.9 29.7 15.5 29.7 18.8 C32 19.3 33.5 21.3 33.5 23.6 C33.5 26.1 31.5 28 29 28 L8.5 28 Z" fill="url(#dv-cloud)"/>
  <path d="M8.5 27.5 C4.5 27.5 2 24.8 2 21.5 C2 18.8 4 16.5 6.6 16 C7.4 12 10.6 9 14.6 9 C17.7 9 20.4 10.7 21.7 13.3 C22.4 13 23.1 12.9 23.9 12.9 C27 12.9 29.7 15.5 29.7 18.8 C32 19.3 33.5 21.3 33.5 23.6 C33.5 26.1 31.5 28 29 28 L8.5 28 Z" fill="url(#dv-gloss)"/>
  <path d="M6.8 15.6 C7.8 11.7 11 9 14.8 9 C17.7 9 20.3 10.6 21.6 13" stroke="#ffffff" stroke-width="1.2" stroke-opacity=".55" stroke-linecap="round" fill="none"/>
  <circle cx="18" cy="20.5" r="7" fill="url(#dv-gold)" stroke="#7c2d12" stroke-width=".3" stroke-opacity=".4"/>
  <circle cx="18" cy="20.5" r="7" fill="none" stroke="#fff8e1" stroke-width=".5" opacity=".7"/>
  <path d="M 18 24.5 L 18 17" stroke="#ffffff" stroke-width="2.2" stroke-linecap="round"/>
  <path d="M 14.6 20.2 L 18 16.8 L 21.4 20.2" stroke="#ffffff" stroke-width="2.2" stroke-linecap="round" stroke-linejoin="round" fill="none"/>
</svg>
